<svg width="20" height="19" viewBox="0 0 20 19" fill="none" xmlns="http://www.w3.org/2000/svg">
<path d="M18.557 3.09453L16.0609 0.600781C15.7562 0.296094 15.3484 0.125 14.9172 0.125C14.4859 0.125 14.0781 0.29375 13.7734 0.600781L11.0852 3.28437C10.7805 3.58906 10.6094 3.99922 10.6094 4.43047C10.6094 4.86406 10.7781 5.26953 11.0852 5.57656L13.1852 7.67891C12.7068 8.79356 12.0194 9.80632 11.1602 10.6625C10.3 11.5273 9.29453 12.2094 8.17891 12.6922L6.07891 10.5898C5.77422 10.2852 5.36641 10.1141 4.93516 10.1141C4.72244 10.1133 4.51172 10.155 4.31532 10.2366C4.11892 10.3183 3.9408 10.4384 3.79141 10.5898L1.10078 13.2734C0.796094 13.5781 0.625 13.9883 0.625 14.4195C0.625 14.8531 0.79375 15.2586 1.10078 15.5656L3.59453 18.0594C4.11484 18.5797 4.83203 18.8773 5.56797 18.8773C5.72031 18.8773 5.86797 18.8656 6.01797 18.8398C9.12109 18.3289 12.2008 16.6766 14.6875 14.1922C17.1719 11.7031 18.8219 8.62344 19.3375 5.51797C19.4852 4.63672 19.1898 3.72969 18.557 3.09453ZM17.6758 5.23906C17.2188 8.00234 15.7328 10.7586 13.4945 12.9969C11.2562 15.2352 8.50234 16.7211 5.73906 17.1781C5.39219 17.2367 5.03594 17.1195 4.78281 16.8687L2.33359 14.4195L4.93047 11.8203L7.73828 14.6328L7.75937 14.6539L8.26562 14.4664C9.80061 13.902 11.1945 13.0107 12.3508 11.854C13.507 10.6974 14.3979 9.30315 14.9617 7.76797L15.1492 7.26172L12.318 4.43281L14.9148 1.83359L17.3641 4.28281C17.6172 4.53594 17.7344 4.89219 17.6758 5.23906Z" fill="#353535"/>
</svg>
