<svg width="38" height="42" viewBox="0 0 38 42" fill="none" xmlns="http://www.w3.org/2000/svg">
<path d="M2.95403 16.68C3.03448 15.6776 3.48953 14.7423 4.22857 14.0603C4.96762 13.3784 5.93641 12.9998 6.94203 13H31.058C32.0636 12.9998 33.0324 13.3784 33.7715 14.0603C34.5105 14.7423 34.9656 15.6776 35.046 16.68L36.652 36.68C36.6962 37.2304 36.6259 37.784 36.4457 38.3059C36.2654 38.8278 35.9791 39.3067 35.6046 39.7125C35.2302 40.1183 34.7758 40.4422 34.2701 40.6638C33.7643 40.8854 33.2182 40.9998 32.666 41H5.33403C4.78187 40.9998 4.23573 40.8854 3.72998 40.6638C3.22424 40.4422 2.76985 40.1183 2.39542 39.7125C2.02099 39.3067 1.73463 38.8278 1.55437 38.3059C1.37411 37.784 1.30385 37.2304 1.34803 36.68L2.95403 16.68V16.68Z" stroke="#1A1A1A" stroke-width="2" stroke-linecap="round" stroke-linejoin="round"/>
<path d="M27 19V9C27 6.87827 26.1571 4.84344 24.6569 3.34315C23.1566 1.84285 21.1217 1 19 1C16.8783 1 14.8434 1.84285 13.3431 3.34315C11.8429 4.84344 11 6.87827 11 9V19" stroke="#1A1A1A" stroke-width="2" stroke-linecap="round" stroke-linejoin="round"/>
</svg>
