<svg width="20" height="20" viewBox="0 0 20 20" fill="none" xmlns="http://www.w3.org/2000/svg">
<path d="M9.99999 5.48986C7.33983 5.48986 5.19296 7.63673 5.19296 10.2969C5.19296 12.957 7.33983 15.1039 9.99999 15.1039C12.6601 15.1039 14.807 12.957 14.807 10.2969C14.807 7.63673 12.6601 5.48986 9.99999 5.48986ZM9.99999 13.4211C8.27968 13.4211 6.87577 12.0172 6.87577 10.2969C6.87577 8.57658 8.27968 7.17267 9.99999 7.17267C11.7203 7.17267 13.1242 8.57658 13.1242 10.2969C13.1242 12.0172 11.7203 13.4211 9.99999 13.4211ZM15.0039 4.17267C14.3828 4.17267 13.8812 4.67423 13.8812 5.29533C13.8812 5.91642 14.3828 6.41798 15.0039 6.41798C15.625 6.41798 16.1266 5.91876 16.1266 5.29533C16.1267 5.14784 16.0978 5.00178 16.0415 4.86549C15.9851 4.72919 15.9024 4.60536 15.7981 4.50108C15.6939 4.39679 15.57 4.3141 15.4337 4.25775C15.2974 4.2014 15.1514 4.17248 15.0039 4.17267ZM19.3703 10.2969C19.3703 9.00314 19.382 7.72111 19.3094 6.4297C19.2367 4.9297 18.8945 3.59845 17.7976 2.50158C16.6984 1.40236 15.3695 1.06251 13.8695 0.989857C12.5758 0.917201 11.2937 0.92892 10.0023 0.92892C8.70858 0.92892 7.42655 0.917201 6.13515 0.989857C4.63515 1.06251 3.3039 1.4047 2.20702 2.50158C1.1078 3.60079 0.767958 4.9297 0.695302 6.4297C0.622645 7.72345 0.634364 9.00548 0.634364 10.2969C0.634364 11.5883 0.622645 12.8727 0.695302 14.1641C0.767958 15.6641 1.11015 16.9953 2.20702 18.0922C3.30624 19.1914 4.63515 19.5313 6.13515 19.6039C7.4289 19.6766 8.71093 19.6649 10.0023 19.6649C11.2961 19.6649 12.5781 19.6766 13.8695 19.6039C15.3695 19.5313 16.7008 19.1891 17.7976 18.0922C18.8969 16.993 19.2367 15.6641 19.3094 14.1641C19.3844 12.8727 19.3703 11.5906 19.3703 10.2969ZM17.3078 15.8235C17.1367 16.25 16.9305 16.5688 16.6 16.8969C16.2695 17.2274 15.9531 17.4336 15.5266 17.6047C14.2937 18.0945 11.3664 17.9844 9.99999 17.9844C8.63358 17.9844 5.7039 18.0945 4.47108 17.607C4.04452 17.436 3.72577 17.2297 3.39765 16.8992C3.06718 16.5688 2.86093 16.2524 2.68983 15.8258C2.20233 14.5906 2.31249 11.6633 2.31249 10.2969C2.31249 8.93048 2.20233 6.00079 2.68983 4.76798C2.86093 4.34142 3.06718 4.02267 3.39765 3.69454C3.72811 3.36642 4.04452 3.15783 4.47108 2.98673C5.7039 2.49923 8.63358 2.60939 9.99999 2.60939C11.3664 2.60939 14.2961 2.49923 15.5289 2.98673C15.9555 3.15783 16.2742 3.36408 16.6023 3.69454C16.9328 4.02501 17.1391 4.34142 17.3101 4.76798C17.7976 6.00079 17.6875 8.93048 17.6875 10.2969C17.6875 11.6633 17.7976 14.5906 17.3078 15.8235Z" fill="#BC20BF"/>
</svg>
